<?xml version="1.0" encoding="UTF-8"?>
<svg id="Layer_2" data-name="Layer 2" xmlns="http://www.w3.org/2000/svg" xmlns:xlink="http://www.w3.org/1999/xlink" viewBox="0 0 1311.91 1230.07">
  <defs>
    <style>
      .cls-1 {
        fill: #007cf4;
      }

      .cls-2 {
        fill: #bbe0f8;
      }

      .cls-3 {
        stroke: #1f191a;
        stroke-linecap: round;
        stroke-linejoin: round;
        stroke-width: 2.35px;
      }

      .cls-3, .cls-4 {
        fill: #f58331;
      }

      .cls-5, .cls-6 {
        fill: #fff;
      }

      .cls-7 {
        fill: #63c7bb;
      }

      .cls-8 {
        fill: #cae6f7;
      }

      .cls-9 {
        clip-path: url(#clippath-2);
      }

      .cls-10 {
        clip-path: url(#clippath-1);
      }

      .cls-11 {
        fill: #88cfca;
      }

      .cls-12 {
        fill: #f0c9cf;
      }

      .cls-13 {
        fill: #f5faff;
      }

      .cls-14 {
        clip-path: url(#clippath);
      }

      .cls-15 {
        fill: #92d2ce;
      }

      .cls-16 {
        fill: #050542;
      }

      .cls-17 {
        fill: #72c4f4;
      }

      .cls-6 {
        stroke: #2b3990;
        stroke-miterlimit: 10;
        stroke-width: .5px;
      }
    </style>
    <clipPath id="clippath">
      <path class="cls-7" d="m212.21,461.21s19.42-53.8-18.1-75.19c-37.53-21.4-12.6,66.02,0,75.19h18.1Z"/>
    </clipPath>
    <clipPath id="clippath-1">
      <path class="cls-11" d="m201.82,461.31s-9.01-124.1,46.23-110.65c55.24,13.45-23.39,110.65-23.39,110.65h-22.84Z"/>
    </clipPath>
    <clipPath id="clippath-2">
      <path class="cls-7" d="m212.21,461.21s8.94-65.09,55.52-51.18c46.57,13.9-27.76,51.18-27.76,51.18h-27.76Z"/>
    </clipPath>
  </defs>
  <g id="Layer_1-2" data-name="Layer 1">
    <g id="Pc">
      <rect class="cls-8" x="341.47" y="98.25" width="593.57" height="318.55" rx="33.09" ry="33.09"/>
      <path class="cls-1" d="m901.95,422.34H374.57c-21.3,0-38.63-17.33-38.63-38.63v-252.37c0-21.3,17.33-38.63,38.63-38.63h527.38c21.3,0,38.63,17.33,38.63,38.63v252.37c0,21.3-17.33,38.63-38.63,38.63ZM374.57,103.79c-15.19,0-27.55,12.36-27.55,27.55v252.37c0,15.19,12.36,27.55,27.55,27.55h527.38c15.19,0,27.55-12.36,27.55-27.55v-252.37c0-15.19-12.36-27.55-27.55-27.55H374.57Z"/>
    </g>
    <g id="table">
      <g>
        <g>
          <rect class="cls-2" x="71.29" y="649.04" width="26.1" height="531.31" rx="12.74" ry="12.74"/>
          <rect class="cls-2" x="166.99" y="649.04" width="26.1" height="420.13" rx="11.33" ry="11.33"/>
          <rect class="cls-17" x="71.29" y="667.64" width="26.1" height="26.1"/>
          <rect class="cls-17" x="166.99" y="667.64" width="26.1" height="13.05"/>
        </g>
        <g>
          <rect class="cls-2" x="1211.68" y="649.04" width="26.1" height="531.31" rx="12.74" ry="12.74" transform="translate(2449.45 1829.39) rotate(180)"/>
          <rect class="cls-2" x="1115.97" y="649.04" width="26.1" height="420.13" rx="11.33" ry="11.33" transform="translate(2258.05 1718.22) rotate(180)"/>
          <rect class="cls-17" x="1211.68" y="667.64" width="26.1" height="26.1" transform="translate(2449.45 1361.39) rotate(180)"/>
          <rect class="cls-17" x="1115.97" y="667.64" width="26.1" height="13.05" transform="translate(2258.05 1348.33) rotate(180)"/>
        </g>
      </g>
      <g>
        <polygon class="cls-2" points="1311.91 649.04 0 649.04 180.04 474.84 1108.74 474.84 1311.91 649.04"/>
        <rect class="cls-1" y="649.04" width="1311.91" height="18.6"/>
      </g>
      <path class="cls-17" d="m956.63,617.1H306.42c-6.87,0-10.78-7.87-6.62-13.34l68.66-90.45c1.56-2.05,3.98-3.27,6.56-3.29l521.98-4.15c2.88-.02,5.57,1.45,7.1,3.88l59.58,94.6c3.49,5.54-.49,12.75-7.04,12.75Z"/>
    </g>
    <g id="chat-group">
      <g id="chat-1">
        <path class="cls-1" d="m180.33,0h275.13c13.9,0,25.16,11.27,25.16,25.16v115.97c0,13.9-11.27,25.16-25.16,25.16h-25.51v62.66l-66.65-62.66h-182.97c-13.9,0-25.16-11.27-25.16-25.16V25.16c0-13.9,11.27-25.16,25.16-25.16Z"/>
        <g>
          <rect class="cls-13" x="188.5" y="45.2" width="258.81" height="17.14" rx="8.57" ry="8.57" transform="translate(635.8 107.53) rotate(180)"/>
          <rect class="cls-13" x="188.5" y="75.57" width="258.81" height="17.14" rx="8.57" ry="8.57" transform="translate(635.8 168.28) rotate(-180)"/>
          <rect class="cls-13" x="253.52" y="105.91" width="193.79" height="17.14" rx="8.57" ry="8.57" transform="translate(700.82 228.96) rotate(-180)"/>
        </g>
      </g>
      <g id="chat-2">
        <path class="cls-6" d="m1106.8,139.41h-275.13c-13.9,0-25.16,11.27-25.16,25.16v115.97c0,13.9,11.27,25.16,25.16,25.16h25.51v62.66l66.65-62.66h182.97c13.9,0,25.16-11.27,25.16-25.16v-115.97c0-13.9-11.27-25.16-25.16-25.16Z"/>
        <g>
          <rect class="cls-1" x="839.83" y="163.31" width="258.81" height="17.14" rx="8.57" ry="8.57" transform="translate(1938.46 343.76) rotate(-180)"/>
          <rect class="cls-1" x="840.85" y="187.14" width="258.81" height="17.14" rx="8.57" ry="8.57" transform="translate(1940.51 391.42) rotate(180)"/>
          <rect class="cls-1" x="841.19" y="235.82" width="258.81" height="17.14" rx="8.57" ry="8.57" transform="translate(1941.19 488.78) rotate(-180)"/>
          <rect class="cls-1" x="840.85" y="259.99" width="239.15" height="17.14" rx="8.57" ry="8.57" transform="translate(1920.85 537.12) rotate(180)"/>
          <rect class="cls-1" x="840.51" y="211.31" width="158.47" height="17.14" rx="8.57" ry="8.57" transform="translate(1839.49 439.76) rotate(180)"/>
        </g>
      </g>
      <rect class="cls-13" x="506.51" y="497.8" width="258.81" height="17.14" rx="8.57" ry="8.57" transform="translate(1271.83 1012.73) rotate(-180)"/>
    </g>
    <g id="man">
      <g>
        <g>
          <path class="cls-12" d="m673.99,226.15v-17.19c0-12.12-9.83-21.95-21.95-21.95h-32.05c-12.12,0-21.95,9.83-21.95,21.95v17.28c-.31-.03-.6-.09-.92-.09-6.01,0-10.88,4.87-10.88,10.88s4.87,10.88,10.88,10.88c.31,0,.61-.07.92-.09v1.26c0,10.27,4.09,19.57,10.72,26.4l-8,66.98h70.09l-7.95-66.56c6.85-6.87,11.09-16.35,11.09-26.82v-1.16c6.01,0,10.88-4.87,10.88-10.88s-4.87-10.88-10.88-10.88Z"/>
          <path d="m695.08,146.81h-59.28c-67.6,0-46.72,34.15-46.72,34.15-7,13.33-4.2,29.99-.59,41.68h0c7.7,36.26,47.31,37.5,47.31,37.5,41.1-4.18,46.47-37.5,46.47-37.5h0c3.61-11.69,6.41-28.35-.59-41.68-.21-.4-.47-.74-.69-1.12,21.01-7.75,14.09-33.03,14.09-33.03Z"/>
        </g>
        <g>
          <g>
            <path class="cls-12" d="m409.99,1095.25l-12.04,30.57s17.72,16.47,3.67,25.34c-14.06,8.86-25.2,9-31.96,24.08-6.76,15.08-17.86,30.57-31.92,33.61,0,0-.94,15.08-19.83,12.58l38.42-140.82,53.67,14.64Z"/>
            <path class="cls-16" d="m584.76,856.25l-158.33,267-89.66-36.24s78.87-459.03,283.88-349.85l-35.89,119.09Z"/>
          </g>
          <g>
            <path class="cls-12" d="m733.47,1171.22c.76-1.5,1.4-3.09,1.88-4.78l16.42-57.61-51.58-14.7-16.42,57.61c-.37,1.29-.6,2.57-.77,3.86-9.31,1.38-17.5,7.84-20.59,17.41l-.5,1.55c-2.01,6.21,1.4,12.88,7.61,14.89l56.18,18.17c6.21,2.01,12.88-1.4,14.89-7.61l.5-1.55c3.26-10.08-.07-20.71-7.62-27.23Z"/>
            <path class="cls-16" d="m711.68,802.83l-39.88,298.9,92.44,18.52s179.11-429.48-46.22-449.68l-6.34,132.26Z"/>
          </g>
        </g>
        <g>
          <path class="cls-12" d="m433.63,498.47l60.87-2.68,2.5,60.58-56.68,10.14c-17.81,3.19-35.2-7.41-40.54-24.7h0c-6.89-22.29,10.55-44.62,33.85-43.35Z"/>
          <path class="cls-12" d="m419.29,565h0c-18.24-7.53-26.92-28.42-19.39-46.66l28.97-70.17,62.86,35-25.78,62.45c-7.53,18.24-28.42,26.92-46.66,19.39Z"/>
        </g>
        <g>
          <path class="cls-12" d="m842.93,602.29l-76.81-28.15,2.23-53.91,88.26,17.11c14.25,2.76,24.4,18.11,23.66,35.78h0c-.96,22.78-20.19,37.81-37.33,29.17Z"/>
          <path class="cls-12" d="m872.37,601.16h0c17.54-9.04,24.43-30.59,15.39-48.13l-51.23-97.97-66.82,32.18,54.53,98.54c9.04,17.54,30.59,24.43,48.13,15.39Z"/>
        </g>
        <g>
          <path class="cls-4" d="m870.97,438.48l-37.35-47.82c-6.18-7.91-11.69-16.3-17.12-24.75-24.51-38.09-66.68-59.38-109.98-58.6-4.45-.72-9.01-1.11-13.68-1.11h-121.83c-4.66,0-9.21.39-13.66,1.11-42.72-.18-84.14,21.08-108.3,58.73-7.34,11.44-15.82,22.11-24.6,32.49l-27.27,32.24,96.92,55.55,7.48,180.92c.22,5.42,4.68,9.7,10.11,9.7h240.47c5.42,0,9.88-4.28,10.11-9.7l7.44-179.99,101.26-48.76Z"/>
          <line class="cls-3" x1="493.82" y1="486.14" x2="491.73" y2="373.22"/>
          <line class="cls-3" x1="769.71" y1="487.24" x2="772.6" y2="370.24"/>
        </g>
      </g>
      <g>
        <rect class="cls-17" x="615.94" y="916.33" width="37.16" height="195.36"/>
        <g>
          <rect class="cls-8" x="475.37" y="582.68" width="324.27" height="324.27" rx="26.23" ry="26.23"/>
          <g>
            <path class="cls-1" d="m760.89,620.06h-246.77c-1.02,0-1.85-.83-1.85-1.85s.83-1.85,1.85-1.85h246.77c1.02,0,1.85.83,1.85,1.85s-.83,1.85-1.85,1.85Z"/>
            <path class="cls-1" d="m760.89,662.96h-246.77c-1.02,0-1.85-.83-1.85-1.85s.83-1.85,1.85-1.85h246.77c1.02,0,1.85.83,1.85,1.85s-.83,1.85-1.85,1.85Z"/>
            <path class="cls-1" d="m760.89,705.85h-246.77c-1.02,0-1.85-.83-1.85-1.85s.83-1.85,1.85-1.85h246.77c1.02,0,1.85.83,1.85,1.85s-.83,1.85-1.85,1.85Z"/>
            <path class="cls-1" d="m760.89,748.74h-246.77c-1.02,0-1.85-.83-1.85-1.85s.83-1.85,1.85-1.85h246.77c1.02,0,1.85.83,1.85,1.85s-.83,1.85-1.85,1.85Z"/>
            <path class="cls-1" d="m760.89,791.63h-246.77c-1.02,0-1.85-.83-1.85-1.85s.83-1.85,1.85-1.85h246.77c1.02,0,1.85.83,1.85,1.85s-.83,1.85-1.85,1.85Z"/>
            <path class="cls-1" d="m760.89,834.52h-246.77c-1.02,0-1.85-.83-1.85-1.85s.83-1.85,1.85-1.85h246.77c1.02,0,1.85.83,1.85,1.85s-.83,1.85-1.85,1.85Z"/>
            <path class="cls-1" d="m760.89,877.41h-246.77c-1.02,0-1.85-.83-1.85-1.85s.83-1.85,1.85-1.85h246.77c1.02,0,1.85.83,1.85,1.85s-.83,1.85-1.85,1.85Z"/>
          </g>
        </g>
        <path class="cls-17" d="m575.77,721.52h123.48c11.62,0,21.05,9.43,21.05,21.05v149.83c0,23.58-19.14,42.72-42.72,42.72h-80.14c-23.58,0-42.72-19.14-42.72-42.72v-149.83c0-11.62,9.43-21.05,21.05-21.05Z"/>
        <polygon class="cls-17" points="636.47 1097.97 636.47 1149.39 446.63 1188.85 455.01 1156.56 636.47 1097.97"/>
        <polygon class="cls-2" points="635.74 1097.97 635.74 1149.39 825.58 1188.85 817.2 1156.56 635.74 1097.97"/>
        <path class="cls-16" d="m460.03,1230.07h0c-7.4,0-13.39-6-13.39-13.39v-29.94c0-7.4,6-13.39,13.39-13.39h0c7.4,0,13.39,6,13.39,13.39v29.94c0,7.4-6,13.39-13.39,13.39Z"/>
        <path class="cls-16" d="m814.99,1230.07h0c-7.4,0-13.39-6-13.39-13.39v-29.94c0-7.4,6-13.39,13.39-13.39h0c7.4,0,13.39,6,13.39,13.39v29.94c0,7.4-6,13.39-13.39,13.39Z"/>
      </g>
    </g>
    <g id="plant">
      <ellipse class="cls-1" cx="217.36" cy="523.16" rx="50.37" ry="11.39"/>
      <g>
        <g>
          <g>
            <path class="cls-7" d="m212.21,461.21s19.42-53.8-18.1-75.19c-37.53-21.4-12.6,66.02,0,75.19h18.1Z"/>
            <g class="cls-14">
              <path class="cls-11" d="m196.75,462.96c-2.12-15.99-7.08-31.68-11.88-46.85-3.28-10.37-6.67-21.09-9.14-31.85l1.3-.3c2.46,10.71,5.84,21.41,9.11,31.75,4.82,15.23,9.8,30.97,11.93,47.08l-1.32.18Z"/>
              <path class="cls-11" d="m205.86,463.23c-1.06-10.39-2.15-21.13-4.98-31.41-1.85-6.74-4.49-13.42-7.05-19.87-4.15-10.49-8.44-21.33-9.46-32.75l1.33-.12c1,11.23,5.26,21.98,9.38,32.38,2.57,6.49,5.22,13.2,7.1,20.01,2.85,10.38,3.95,21.18,5.02,31.62l-1.33.14Z"/>
              <path class="cls-11" d="m215.25,462.55c-.49-13.15-1.58-27.09-6.18-39.98-1.69-4.74-3.9-9.47-6.03-14.03-4.6-9.83-9.35-20-9.26-30.98h1.34c-.09,10.69,4.6,20.72,9.13,30.42,2.14,4.6,4.37,9.35,6.08,14.15,4.66,13.06,5.76,27.12,6.25,40.38l-1.33.05Z"/>
            </g>
          </g>
          <g>
            <path class="cls-11" d="m201.82,461.31s-9.01-124.1,46.23-110.65c55.24,13.45-23.39,110.65-23.39,110.65h-22.84Z"/>
            <g class="cls-10">
              <path class="cls-7" d="m207.99,463.55c7.07-40,8.94-84.07,35.75-116.96.81-.99-.6-2.41-1.41-1.41-27.1,33.24-29.12,77.39-36.27,117.84-.22,1.26,1.7,1.8,1.93.53h0Z"/>
              <path class="cls-7" d="m260.47,345.73c-25.62,36.23-30.6,81.67-48.66,121.41-.53,1.16,1.19,2.18,1.73,1.01,18.05-39.72,23.05-85.2,48.66-121.41.74-1.05-.99-2.05-1.73-1.01h0Z"/>
              <path class="cls-7" d="m268.44,359.56c-18.19,31.87-25.74,68.82-46.41,99.39-.72,1.07,1.01,2.07,1.73,1.01,20.68-30.57,28.23-67.52,46.41-99.39.64-1.12-1.09-2.13-1.73-1.01h0Z"/>
            </g>
          </g>
          <g>
            <path class="cls-7" d="m212.21,461.21s8.94-65.09,55.52-51.18c46.57,13.9-27.76,51.18-27.76,51.18h-27.76Z"/>
            <g class="cls-9">
              <path class="cls-11" d="m231.51,462.97l-.93-.96c7.8-7.58,17.05-13.79,26-19.79,12.11-8.12,24.63-16.52,33.36-28.32l1.07.79c-8.87,11.98-21.48,20.45-33.69,28.63-8.9,5.97-18.1,12.14-25.81,19.64Z"/>
              <path class="cls-11" d="m219.63,463.63l-.99-.89c18.95-20.95,39.98-40.19,62.54-57.2l.8,1.06c-22.48,16.95-43.46,36.14-62.34,57.03Z"/>
              <path class="cls-11" d="m214.74,463.43l-1.11-.74,19.18-28.69c2.23-3.33,4.53-6.78,7.1-9.97,5.65-7,12.62-12.84,19.35-18.48l.86,1.02c-6.69,5.6-13.6,11.39-19.17,18.29-2.53,3.14-4.82,6.56-7.03,9.87l-19.18,28.69Z"/>
            </g>
          </g>
          <path class="cls-15" d="m234.79,364.75l-.98-2.28,2.2-.95c.57-.25.84-.91.59-1.49-.25-.57-.91-.84-1.49-.59l-2.2.95-.98-2.28c-.25-.57-.91-.84-1.49-.59-.58.25-.84.91-.59,1.49l.98,2.28-2.37,1.02c-.57.25-.84.91-.59,1.49.11.26.31.45.54.57.29.14.63.16.94.02l2.37-1.02.98,2.28c.11.26.31.46.54.57.29.14.63.16.94.02.58-.25.84-.91.59-1.49Z"/>
          <path class="cls-15" d="m216.58,423.85l-.98-2.28,2.2-.95c.58-.25.84-.91.59-1.49-.25-.57-.91-.84-1.49-.59l-2.2.95-.98-2.28c-.25-.57-.91-.84-1.49-.59-.58.25-.84.91-.59,1.49l.98,2.28-2.37,1.02c-.58.25-.84.91-.59,1.49.11.26.31.45.54.57.29.14.63.16.94.02l2.37-1.02.98,2.28c.11.26.31.46.54.57.29.14.63.16.94.02.58-.25.84-.91.59-1.49Z"/>
          <path class="cls-15" d="m245.1,383.48l-.98-2.28,2.2-.95c.58-.25.84-.91.59-1.49-.25-.57-.91-.84-1.49-.59l-2.2.95-.98-2.28c-.25-.57-.91-.84-1.49-.59-.58.25-.84.91-.59,1.49l.98,2.28-2.37,1.02c-.57.25-.84.91-.59,1.49.11.26.31.45.54.57.29.14.63.16.94.02l2.37-1.02.98,2.28c.11.26.31.46.54.57.29.14.63.16.94.02.58-.25.84-.91.59-1.49Z"/>
          <path class="cls-15" d="m237.05,406.5l-.98-2.28,2.2-.95c.57-.25.84-.91.59-1.49-.25-.57-.91-.84-1.49-.59l-2.2.95-.98-2.28c-.25-.57-.91-.84-1.49-.59-.58.25-.84.91-.59,1.49l.98,2.28-2.37,1.02c-.57.25-.84.91-.59,1.49.11.26.31.45.54.57.29.14.63.16.94.02l2.37-1.02.98,2.28c.11.26.31.46.54.57.29.14.63.16.94.02.58-.25.84-.91.59-1.49Z"/>
          <path class="cls-15" d="m263.27,379.02l-.98-2.28,2.2-.95c.58-.25.84-.91.59-1.49-.25-.57-.91-.84-1.49-.59l-2.2.95-.98-2.28c-.25-.57-.91-.84-1.49-.59-.58.25-.84.91-.59,1.49l.98,2.28-2.37,1.02c-.57.25-.84.91-.59,1.49.11.26.31.45.54.57.29.14.63.16.94.02l2.37-1.02.98,2.28c.11.26.31.46.54.57.29.14.63.16.94.02.58-.25.84-.91.59-1.49Z"/>
          <path class="cls-15" d="m256.07,398.9l-.98-2.28,2.2-.95c.58-.25.84-.91.59-1.49-.25-.57-.91-.84-1.49-.59l-2.2.95-.98-2.28c-.25-.57-.91-.84-1.49-.59-.58.25-.84.91-.59,1.49l.98,2.28-2.37,1.02c-.57.25-.84.91-.59,1.49.11.26.31.45.54.57.29.14.63.16.94.02l2.37-1.02.98,2.28c.11.26.31.46.54.57.29.14.63.16.94.02.58-.25.84-.91.59-1.49Z"/>
          <path class="cls-15" d="m254.36,364.75l-.98-2.28,2.2-.95c.57-.25.84-.91.59-1.49-.25-.57-.91-.84-1.49-.59l-2.2.95-.98-2.28c-.25-.57-.91-.84-1.49-.59-.58.25-.84.91-.59,1.49l.98,2.28-2.37,1.02c-.57.25-.84.91-.59,1.49.11.26.31.45.54.57.29.14.63.16.94.02l2.37-1.02.98,2.28c.11.26.31.46.54.57.29.14.63.16.94.02.58-.25.84-.91.59-1.49Z"/>
          <path class="cls-15" d="m191.57,392.12l-2.24-1.08,1.04-2.15c.27-.56.04-1.24-.53-1.51-.56-.27-1.24-.04-1.51.53l-1.04,2.15-2.24-1.08c-.56-.27-1.24-.04-1.51.53-.27.56-.04,1.24.53,1.51l2.24,1.08-1.12,2.32c-.27.56-.04,1.24.53,1.51.25.12.53.14.78.08.31-.08.58-.29.73-.6l1.12-2.32,2.24,1.08c.25.12.53.14.78.07.31-.08.58-.29.73-.6.27-.56.04-1.24-.53-1.51Z"/>
          <path class="cls-15" d="m246.29,422.41l-2.24-1.08,1.04-2.15c.27-.56.04-1.24-.53-1.51-.56-.27-1.24-.04-1.51.53l-1.04,2.15-2.24-1.08c-.56-.27-1.24-.04-1.51.53-.27.56-.04,1.24.53,1.51l2.24,1.08-1.12,2.32c-.27.56-.04,1.24.53,1.51.25.12.53.14.78.08.31-.08.58-.29.73-.6l1.12-2.32,2.24,1.08c.25.12.53.14.78.08.31-.08.58-.29.73-.6.27-.56.04-1.24-.53-1.51Z"/>
          <path class="cls-15" d="m264.47,422.41l-2.24-1.08,1.04-2.15c.27-.56.04-1.24-.53-1.51-.56-.27-1.24-.04-1.51.53l-1.04,2.15-2.24-1.08c-.56-.27-1.24-.04-1.51.53-.27.56-.04,1.24.53,1.51l2.24,1.08-1.12,2.32c-.27.56-.04,1.24.53,1.51.25.12.53.14.78.08.31-.08.58-.29.73-.6l1.12-2.32,2.24,1.08c.25.12.53.14.78.08.31-.08.58-.29.73-.6.27-.56.04-1.24-.53-1.51Z"/>
          <path class="cls-15" d="m267.09,439.51l-2.24-1.08,1.04-2.15c.27-.56.04-1.24-.53-1.51-.56-.27-1.24-.04-1.51.53l-1.04,2.15-2.24-1.08c-.56-.27-1.24-.04-1.51.53-.27.56-.04,1.24.53,1.51l2.24,1.08-1.12,2.32c-.27.56-.04,1.24.53,1.51.25.12.53.14.78.07.31-.08.58-.29.73-.6l1.12-2.32,2.24,1.08c.25.12.53.14.78.08.31-.08.58-.29.73-.6.27-.56.04-1.24-.53-1.51Z"/>
          <path class="cls-15" d="m244.3,439.85l-2.42.57-.55-2.33c-.14-.61-.75-.99-1.36-.84-.6.14-.99.75-.84,1.36l.55,2.33-2.42.57c-.61.15-.99.75-.84,1.36.14.61.75.99,1.36.84l2.42-.57.59,2.51c.14.61.75.99,1.36.84.27-.07.5-.22.66-.44.19-.26.27-.59.19-.93l-.59-2.51,2.42-.57c.27-.07.5-.23.66-.44.19-.26.27-.59.19-.93-.14-.61-.75-.99-1.36-.84Z"/>
          <path class="cls-15" d="m228.56,444.46l-2.45.4-.39-2.36c-.1-.62-.68-1.04-1.3-.93-.61.1-1.04.68-.93,1.3l.39,2.36-2.45.4c-.62.1-1.04.68-.93,1.3.1.62.68,1.04,1.3.93l2.45-.4.41,2.54c.1.62.68,1.04,1.3.93.28-.05.52-.19.68-.39.2-.24.31-.57.25-.91l-.41-2.54,2.45-.4c.28-.05.52-.19.68-.39.2-.24.31-.57.25-.91-.1-.62-.68-1.04-1.3-.93Z"/>
          <path class="cls-15" d="m187.18,410.58l-2.08-1.36,1.31-2c.34-.52.19-1.23-.33-1.57-.52-.34-1.22-.2-1.57.33l-1.31,2-2.08-1.36c-.52-.34-1.23-.19-1.57.33-.34.53-.19,1.23.33,1.57l2.08,1.36-1.41,2.16c-.34.52-.19,1.23.33,1.57.24.15.51.21.77.17.32-.04.61-.22.8-.5l1.41-2.16,2.08,1.36c.24.15.51.21.77.17.32-.04.61-.22.8-.5.34-.53.19-1.23-.33-1.57Z"/>
          <path class="cls-15" d="m194.26,438.63l-2.08-1.36,1.31-2c.34-.52.19-1.23-.33-1.57-.52-.34-1.22-.2-1.57.33l-1.31,2-2.08-1.36c-.52-.34-1.23-.19-1.57.33-.34.53-.19,1.23.33,1.57l2.08,1.36-1.41,2.16c-.34.52-.19,1.23.33,1.57.24.15.51.21.77.17.32-.04.61-.22.8-.5l1.41-2.16,2.08,1.36c.24.15.51.21.77.17.32-.04.61-.22.8-.5.34-.53.19-1.23-.33-1.57Z"/>
          <path class="cls-15" d="m199.4,417.72l-2.08-1.36,1.31-2c.34-.52.19-1.23-.33-1.57-.52-.34-1.22-.2-1.57.33l-1.31,2-2.08-1.36c-.52-.34-1.23-.19-1.57.33-.34.53-.19,1.23.33,1.57l2.08,1.36-1.41,2.16c-.34.52-.19,1.23.33,1.57.24.15.51.21.77.17.32-.04.61-.22.8-.5l1.41-2.16,2.08,1.36c.24.15.51.21.77.17.32-.04.61-.22.8-.5.34-.53.19-1.23-.33-1.57Z"/>
          <path class="cls-15" d="m223.31,389.99l-.98-2.28,2.2-.95c.57-.25.84-.91.59-1.49-.25-.57-.91-.84-1.49-.59l-2.2.95-.98-2.28c-.25-.57-.91-.84-1.49-.59-.58.25-.84.91-.59,1.49l.98,2.28-2.37,1.02c-.57.25-.84.91-.59,1.49.11.26.31.45.54.57.29.14.63.16.94.02l2.37-1.02.98,2.28c.11.26.31.46.54.57.29.14.63.16.94.02.58-.25.84-.91.59-1.49Z"/>
        </g>
        <path class="cls-17" d="m179.37,461.31h79.58v41.07c0,10.72-8.7,19.42-19.42,19.42h-40.74c-10.72,0-19.42-8.7-19.42-19.42v-41.07h0Z"/>
        <rect class="cls-13" x="179.37" y="469.96" width="79.58" height="4.1"/>
      </g>
    </g>
    <g id="coffee">
      <ellipse class="cls-1" cx="1040.74" cy="572.19" rx="47.3" ry="11.14"/>
      <path class="cls-5" d="m1009,492.4v59.04c0,12.41,10.06,22.48,22.48,22.48h16.47c11.95,0,21.63-9.35,22.34-21.13h20.9v-48.3h-20.77v-12.09h-61.43Zm77.52,55.72h-16.1v-38.97h16.1v38.97Z"/>
    </g>
  </g>
</svg>